<svg viewBox="0 0 512 512" xmlns="http://www.w3.org/2000/svg" fill-rule="evenodd" clip-rule="evenodd" stroke-linejoin="round" stroke-miterlimit="2"><path d="M256 128c35.32 0 64 28.68 64 64s-28.68 64-64 64-64 28.68-64 64 28.68 64 64 64c-70.65 0-128-57.36-128-128 0-70.65 57.35-128 128-128z" fill="url(#_Radial1)" transform="rotate(45.19 256 256)"/><ellipse cx="256" cy="256" rx="163" ry="150" fill="#ebebeb" transform="matrix(-.04501 .06435 -.04446 -.08531 319.61 211.53)"/><ellipse cx="256" cy="256" rx="163" ry="150" fill="url(#_Linear2)" transform="matrix(.00197 .05231 -.05685 .00214 315.45 196.95)"/><path d="M94.53 239.97S60.94 339.02 63.02 384c1.03 22.5 18.87 49.6 32.76 49.9 13.69.3 44.45-47.36 42.37-71.02-4.42-50.13-43.62-122.9-43.62-122.9z" fill="url(#_Radial3)" transform="matrix(-.49274 .43369 -.5912 -.6717 480.79 290.83)"/><path d="M94.53 239.97S60.94 339.02 63.02 384c1.03 22.5 18.87 49.6 32.76 49.9 13.69.3 44.45-47.36 42.37-71.02-4.42-50.13-43.62-122.9-43.62-122.9z" fill="url(#_Radial4)" transform="matrix(-.57065 .3244 -.44222 -.77792 460.4 322.83)"/><path d="M205.66 125.71c12.97 0 25.34 11.58 25.34 21.79 0 10.21-10.49.44-23.46.44S184 157.7 184 147.5c0-10.21 8.69-21.79 21.66-21.79z" fill="url(#_Radial5)" transform="matrix(.57396 -1.26402 .86131 .3911 -116.4 410.55)"/><g><path d="M210.78 312.17c.79-5.37 2.85-10.2 4.4-14.53.62-1.75 1.5-3.36 2.6-4.86 21.68-29.83 70.37-29.74 87.9 3.68 2.7 5.14 4.48 9.03 4.93 13.2 6.26-4.82 13.1-5.7 18.28-4.4 12.44 3.16 24.64 16.18 20.6 35.07-2.38 11.18-12.66 21.47-23.71 26.03-6.68 2.76-13.6 3.4-19.27 1.27-2.88 3.13-7.5 6.5-13.25 9.55-10.22 5.42-24.04 10.01-37 11.02-14.53 1.12-27.91-2.35-34.88-13.2-25.2.77-41-5.85-50.42-14.7a38.11 38.11 0 01-12.15-31.18c.47-5.02 2.03-9.32 4.12-12.23 2.9-4.03 8.51-8.88 14.72-11.53 4.45-1.9 9.19-2.67 13.5-1.55 9.86 2.57 15.82 5.4 19.63 8.36z" fill="#86cce1"/><path d="M210.78 312.17c.79-5.37 2.85-10.2 4.4-14.53.62-1.75 1.5-3.36 2.6-4.86 21.68-29.83 70.37-29.74 87.9 3.68 2.7 5.14 4.48 9.03 4.93 13.2 6.26-4.82 13.1-5.7 18.28-4.4 12.44 3.16 24.64 16.18 20.6 35.07-2.38 11.18-12.66 21.47-23.71 26.03-6.68 2.76-13.6 3.4-19.27 1.27-2.88 3.13-7.5 6.5-13.25 9.55-10.22 5.42-24.04 10.01-37 11.02-14.53 1.12-27.91-2.35-34.88-13.2-25.2.77-41-5.85-50.42-14.7a38.11 38.11 0 01-12.15-31.18c.47-5.02 2.03-9.32 4.12-12.23 2.9-4.03 8.51-8.88 14.72-11.53 4.45-1.9 9.19-2.67 13.5-1.55 9.86 2.57 15.82 5.4 19.63 8.36zm-2.11 2.72a3.44 3.44 0 005.51-2.22c.76-5.13 2.76-9.73 4.24-13.88a15.78 15.78 0 012.13-3.99c20.25-27.85 65.72-27.95 82.09 3.26 2.44 4.67 4.14 8.18 4.55 11.97a3.44 3.44 0 005.52 2.35c5.26-4.04 10.98-4.88 15.33-3.78 11 2.79 21.65 14.34 18.09 31.02-2.17 10.15-11.62 19.41-21.66 23.56-5.82 2.4-11.82 3.07-16.76 1.23a3.44 3.44 0 00-3.74.9c-2.67 2.9-6.98 6-12.32 8.83-9.85 5.23-23.16 9.66-35.66 10.63-13.16 1.02-25.4-1.8-31.72-11.63a3.44 3.44 0 00-3-1.57c-23.93.72-39.01-5.37-47.96-13.77a34.69 34.69 0 01-11.08-28.36c.4-4.32 1.7-8.04 3.49-10.54 2.6-3.64 7.69-7.99 13.28-10.38 3.72-1.6 7.68-2.32 11.29-1.38 9.22 2.4 14.82 4.98 18.38 7.75z" fill="#86cce1"/><path d="M302.43 319.17c1.29-3.37 1.77-6.04 1.54-8.56-.32-3.52-1.96-6.7-4.23-11.03-15.26-29.1-57.67-28.82-76.54-2.85-.71.97-1.3 2.02-1.7 3.16-2.4 6.71-6.82 14.75-2.71 24.54.05.1.08.22.12.32 1.03 2.62 2.36 5.26 5.76 7.79 6.27 4.65 13.23 6.48 18.77 5.7 3.15-.45 5.8-1.73 7.31-3.97 1.65-2.46 1.79-5.91.19-10.22-1.2-3.23-2.8-5.28-4.64-6.37-3.79-2.23-8.33-.28-9.82 2a3.35 3.35 0 01-5.62-3.65c2.86-4.4 11.55-8.42 18.84-4.13 2.9 1.71 5.65 4.75 7.53 9.82 2.55 6.88 1.72 12.37-.91 16.29-2.5 3.7-6.73 6.13-11.94 6.87-6.98.98-15.8-1.1-23.7-6.95a22.1 22.1 0 01-7.76-10.13 33 33 0 01-.29-.71l-.02-.06c-.28-.65-.52-1.3-.73-1.93-.83-2.15-1.78-4.29-3.85-6.34-3.05-3.03-8.37-5.8-18.57-8.46-2.94-.76-6.14-.07-9.17 1.22-5.02 2.15-9.58 6.03-11.92 9.28-2.34 3.26-3.53 8.91-2.8 15.12 1.87 15.7 16.38 34.16 57.53 32.3 1.3-.05 2.5.64 3.1 1.77 5.37 10 17.08 12.49 29.54 11.52 12.05-.93 24.88-5.22 34.38-10.26 5.95-3.15 10.59-6.52 12.6-9.6a3.35 3.35 0 014.48-1.07c4.46 2.57 10.35 1.92 16.02-.42 9.1-3.75 17.75-12.04 19.71-21.23 3.12-14.57-6.09-24.73-15.69-27.16-5.53-1.4-13.18 1.2-18.8 10.43a60.25 60.25 0 01-1.7 3.88 23.3 23.3 0 00-1.86 5.15 14.6 14.6 0 00.09 5.04l.11.33c.78 2.05 2.43 3.33 4.06 4.18 2.82 1.49 5.74 1.76 5.74 1.76l.37.06.19.04a3.32 3.32 0 012.2 1.88l.15.4.11.51.03.47-.01.33-.1.51a3.32 3.32 0 01-1.88 2.2l-.4.15-.14.04c-8.17 2.06-15.96-3.5-17.28-12.71-.2-1.2-.28-2.5-.17-3.92a26.91 26.91 0 012.94-10.5c.5-1 1.01-1.94 1.54-2.83z" fill="#2691b5"/><path d="M302.43 319.17c1.29-3.37 1.77-6.04 1.54-8.56-.32-3.52-1.96-6.7-4.23-11.03-15.26-29.1-57.67-28.82-76.54-2.85-.71.97-1.3 2.02-1.7 3.16-2.4 6.71-6.82 14.75-2.71 24.54.05.1.08.22.12.32 1.03 2.62 2.36 5.26 5.76 7.79 6.27 4.65 13.23 6.48 18.77 5.7 3.15-.45 5.8-1.73 7.31-3.97 1.65-2.46 1.79-5.91.19-10.22-1.2-3.23-2.8-5.28-4.64-6.37-3.79-2.23-8.33-.28-9.82 2a3.35 3.35 0 01-5.62-3.65c2.86-4.4 11.55-8.42 18.84-4.13 2.9 1.71 5.65 4.75 7.53 9.82 2.55 6.88 1.72 12.37-.91 16.29-2.5 3.7-6.73 6.13-11.94 6.87-6.98.98-15.8-1.1-23.7-6.95a22.1 22.1 0 01-7.76-10.13 33 33 0 01-.29-.71l-.02-.06c-.28-.65-.52-1.3-.73-1.93-.83-2.15-1.78-4.29-3.85-6.34-3.05-3.03-8.37-5.8-18.57-8.46-2.94-.76-6.14-.07-9.17 1.22-5.02 2.15-9.58 6.03-11.92 9.28-2.34 3.26-3.53 8.91-2.8 15.12 1.87 15.7 16.38 34.16 57.53 32.3 1.3-.05 2.5.64 3.1 1.77 5.37 10 17.08 12.49 29.54 11.52 12.05-.93 24.88-5.22 34.38-10.26 5.95-3.15 10.59-6.52 12.6-9.6a3.35 3.35 0 014.48-1.07c4.46 2.57 10.35 1.92 16.02-.42 9.1-3.75 17.75-12.04 19.71-21.23 3.12-14.57-6.09-24.73-15.69-27.16-5.53-1.4-13.18 1.2-18.8 10.43a60.25 60.25 0 01-1.7 3.88 23.3 23.3 0 00-1.86 5.15 14.6 14.6 0 00.09 5.04l.11.33c.78 2.05 2.43 3.33 4.06 4.18 2.82 1.49 5.74 1.76 5.74 1.76l.37.06.19.04a3.32 3.32 0 012.2 1.88l.15.4.11.51.03.47-.01.33-.1.51a3.32 3.32 0 01-1.88 2.2l-.4.15-.14.04c-8.17 2.06-15.96-3.5-17.28-12.71-.2-1.2-.28-2.5-.17-3.92a26.91 26.91 0 012.94-10.5c.5-1 1.01-1.94 1.54-2.83zm-3.12-1.47c1-2.66 1.42-4.76 1.23-6.77-.28-3.13-1.83-5.92-3.84-9.75-14.1-26.89-53.28-26.42-70.72-2.43-.52.7-.95 1.46-1.24 2.29-2.15 6.05-6.48 13.24-2.78 22.06l.17.45a12.96 12.96 0 004.59 6.23c5.44 4.03 11.44 5.73 16.24 5.05 2.09-.3 3.94-1 4.94-2.48 1.14-1.7.92-4.11-.19-7.1-.84-2.3-1.85-3.83-3.16-4.6-1.99-1.17-4.4-.3-5.19.91a6.8 6.8 0 01-11.39-7.4c3.58-5.5 14.4-10.57 23.47-5.22 3.44 2.02 6.78 5.57 9.01 11.58 3.04 8.2 1.86 14.74-1.28 19.4-3 4.47-8.04 7.47-14.3 8.36-7.72 1.1-17.51-1.11-26.25-7.6a25.3 25.3 0 01-8.88-11.56l-.3-.76c-.3-.7-.56-1.38-.8-2.07-.65-1.72-1.38-3.45-3.04-5.1-2.78-2.76-7.7-5.14-17-7.56-2.24-.58-4.66.07-6.96 1.05-4.4 1.88-8.42 5.27-10.47 8.13-1.96 2.73-2.8 7.5-2.18 12.7 1.73 14.62 15.67 31 53.96 29.28a6.8 6.8 0 016.29 3.58c4.73 8.82 15.24 10.56 26.24 9.71 11.57-.9 23.9-5.02 33.03-9.87 5.3-2.81 9.54-5.7 11.33-8.45a6.8 6.8 0 019.09-2.16c3.6 2.08 8.38 1.28 12.98-.62 8.09-3.34 15.91-10.59 17.66-18.76 2.64-12.36-5.03-21.05-13.18-23.12-4.44-1.12-10.33 1.35-14.88 8.66a63.69 63.69 0 01-1.68 3.8 20.14 20.14 0 00-1.56 4.28c-.18 1.28-.16 2.47.03 3.54.46 1.2 1.5 1.86 2.44 2.36a13.57 13.57 0 004.46 1.38l.55.07.3.06.27.07a6.74 6.74 0 014.55 4.01l.15.4c.05.14.1.3.13.46l.11.52c.04.16.06.33.07.5l.04.46v.42l-.02.33c0 .15-.03.3-.05.44l-.1.51-.05.25a6.75 6.75 0 01-4.02 4.55l-.39.15-.27.09-.23.06c-10.11 2.54-19.9-4.16-21.53-15.57l.02.1a19.1 19.1 0 01-.21-4.69 30.3 30.3 0 013.3-11.84 46 46 0 011.49-2.77z" fill="#2691b5"/></g><defs><radialGradient id="_Radial1" cx="0" cy="0" r="1" gradientUnits="userSpaceOnUse" gradientTransform="rotate(30.5 -523 302.18) scale(161.2111)"><stop offset="0" stop-color="#d77e95"/><stop offset="1" stop-color="#b43757"/></radialGradient><radialGradient id="_Radial3" cx="0" cy="0" r="1" gradientUnits="userSpaceOnUse" gradientTransform="matrix(60.2251 8.52499 -28.348 107.766 52.26 376.25)"><stop offset="0" stop-color="#cb5d7a"/><stop offset=".53" stop-color="#c65472"/><stop offset="1" stop-color="#b43757"/></radialGradient><radialGradient id="_Radial4" cx="0" cy="0" r="1" gradientUnits="userSpaceOnUse" gradientTransform="matrix(60.2251 8.52499 -28.348 107.766 52.26 376.25)"><stop offset="0" stop-color="#cb5d7a"/><stop offset=".53" stop-color="#c65472"/><stop offset="1" stop-color="#b43757"/></radialGradient><radialGradient id="_Radial5" cx="0" cy="0" r="1" gradientUnits="userSpaceOnUse" gradientTransform="matrix(-15.4961 26.2895 -17.9138 -22.7413 198.86 113.86)"><stop offset="0" stop-color="#d77e95"/><stop offset="1" stop-color="#b43757"/></radialGradient><linearGradient id="_Linear2" x1="0" y1="0" x2="1" y2="0" gradientUnits="userSpaceOnUse" gradientTransform="matrix(174.526 -156.921 170.52 160.607 198.7 308.73)"><stop offset="0" stop-color="#78132e"/><stop offset="1" stop-color="#b43757" stop-opacity=".64"/></linearGradient></defs></svg>
